<?xml version="1.0" standalone="no"?>
<!DOCTYPE svg PUBLIC "-//W3C//DTD SVG 20010904//EN"
 "http://www.w3.org/TR/2001/REC-SVG-20010904/DTD/svg10.dtd">
<svg version="1.0" xmlns="http://www.w3.org/2000/svg"
 width="220.000000pt" height="220.000000pt" viewBox="0 0 220.000000 220.000000"
 preserveAspectRatio="xMidYMid meet">
<metadata>
Created by potrace 1.14, written by Peter Selinger 2001-2017
</metadata>
<g transform="translate(0.000000,220.000000) scale(0.100000,-0.100000)"
fill="#000000" stroke="none">
<path d="M1380 1585 c-28 -58 -56 -105 -62 -106 -7 0 -121 -1 -253 -2 l-239
-2 -48 -105 -48 -105 -305 -1 c-168 0 -307 -3 -309 -5 -2 -2 -28 -52 -59 -111
-44 -87 -52 -108 -39 -109 9 -1 63 -1 119 -2 57 0 103 -3 103 -7 0 -7 -34 -83
-101 -228 -22 -46 -39 -86 -39 -88 0 -4 -50 -114 -80 -176 l-18 -38 138 0
c135 0 139 1 146 22 4 13 21 54 39 93 18 38 54 117 80 175 26 58 62 137 80
176 l32 71 178 -1 c97 -1 182 2 187 5 6 4 30 51 53 105 l42 99 121 3 c113 2
121 1 115 -15 -8 -24 -33 -80 -82 -186 -23 -49 -41 -92 -41 -98 0 -10 6 -10
-295 -12 l-210 -2 -29 -60 c-16 -33 -40 -83 -52 -112 l-23 -52 307 1 c380 2
437 12 488 91 43 67 255 549 256 583 1 21 -7 45 -19 62 l-20 27 96 -3 c53 -2
97 -5 99 -6 2 -3 -162 -372 -220 -496 -7 -14 -14 -28 -15 -32 -7 -13 246 -8
254 5 8 12 145 316 206 455 l31 72 56 1 c30 1 63 1 72 0 13 -2 32 28 73 108
l55 111 -385 0 -386 0 -49 -105z"/>
<path d="M1962 960 c-41 -25 -51 -73 -25 -109 61 -81 175 -23 143 73 -17 51
-67 67 -118 36z m90 -17 c27 -31 28 -62 4 -90 -52 -60 -146 -2 -110 69 7 14
19 28 26 31 28 11 66 6 80 -10z"/>
<path d="M1977 933 c-11 -10 -8 -83 3 -83 6 0 9 3 9 8 -5 30 3 35 22 13 11
-13 22 -21 26 -17 4 3 2 11 -4 17 -9 9 -9 16 0 30 6 10 9 21 5 24 -9 9 -54 15
-61 8z m43 -23 c0 -5 -6 -10 -14 -10 -8 0 -18 5 -21 10 -3 6 3 10 14 10 12 0
21 -4 21 -10z"/>
<path d="M1865 710 c-3 -5 -1 -10 4 -10 6 0 11 5 11 10 0 6 -2 10 -4 10 -3 0
-8 -4 -11 -10z"/>
<path d="M1143 673 c-27 -31 -28 -37 -7 -57 24 -25 63 -20 76 10 10 22 9 28
-17 50 -15 13 -29 24 -29 23 -1 0 -11 -12 -23 -26z m41 -9 c18 -7 22 -39 6
-49 -6 -3 -19 -3 -30 0 -22 7 -27 40 -7 48 6 3 13 6 14 6 1 1 8 -2 17 -5z"/>
<path d="M1492 691 c-11 -7 -10 -9 3 -15 22 -8 16 -60 -7 -64 -14 -3 -18 3
-18 27 0 16 -4 32 -9 35 -8 5 -9 -31 -2 -67 0 -5 16 -7 34 -5 29 3 32 6 29 36
-1 17 3 32 9 32 5 0 8 4 4 10 -3 5 -13 6 -22 3 -11 -4 -14 -3 -9 5 8 14 6 15
-12 3z"/>
<path d="M1844 684 c15 -36 18 -49 8 -36 -7 11 -12 7 -20 -17 -7 -19 -7 -31
-1 -31 5 0 9 7 9 15 0 21 27 19 39 -2 17 -31 23 -6 6 26 -9 18 -13 35 -11 40
3 5 -4 11 -15 14 -15 4 -19 2 -15 -9z"/>
<path d="M488 663 c-8 -36 4 -63 26 -63 44 0 63 50 27 70 -29 15 -49 12 -53
-7z m51 -6 c14 -18 -10 -54 -29 -42 -10 6 -9 11 5 22 17 12 18 13 1 13 -9 0
-14 5 -11 10 8 14 20 13 34 -3z"/>
<path d="M588 640 c-9 -22 -13 -40 -8 -40 4 0 10 7 14 15 3 8 12 15 20 15 7 0
16 -7 20 -15 3 -8 10 -15 16 -15 6 0 1 18 -10 40 -11 22 -24 40 -28 40 -4 0
-15 -18 -24 -40z"/>
<path d="M675 640 c0 -22 3 -40 8 -40 4 0 7 18 7 40 0 22 -4 40 -8 40 -4 0 -8
-18 -7 -40z"/>
<path d="M750 640 c0 -22 5 -40 10 -40 6 0 10 8 8 17 -2 12 4 18 20 19 15 1
21 -4 20 -14 -2 -8 2 -17 7 -19 6 -2 10 14 10 37 0 22 -3 40 -7 40 -5 0 -8 -7
-8 -16 0 -10 -7 -14 -22 -12 -13 2 -22 9 -20 16 1 6 -2 12 -8 12 -5 0 -10 -18
-10 -40z"/>
<path d="M850 665 c-17 -20 -9 -48 18 -60 12 -5 22 -14 22 -19 0 -5 9 3 20 17
11 14 20 31 20 39 0 35 -56 52 -80 23z m59 -13 c7 -13 6 -23 -1 -30 -26 -26
-64 -2 -47 30 5 10 16 18 24 18 8 0 19 -8 24 -18z"/>
<path d="M960 670 c-30 -19 -12 -70 25 -70 13 0 26 4 29 9 3 4 -5 6 -18 4 -18
-4 -26 0 -31 17 -8 24 10 43 33 35 6 -2 12 0 12 5 0 13 -30 13 -50 0z"/>
<path d="M1060 669 c0 -5 5 -7 10 -4 6 4 10 -8 10 -29 0 -20 4 -36 10 -36 5 0
8 14 6 30 -2 20 2 34 13 40 12 7 9 9 -16 10 -18 0 -33 -5 -33 -11z"/>
<path d="M1233 640 c1 -22 5 -40 10 -40 5 0 7 9 4 20 -8 30 9 33 27 5 23 -35
31 -31 33 15 2 27 -1 39 -8 34 -6 -3 -8 -12 -5 -19 9 -24 -6 -24 -29 1 -12 13
-25 24 -28 24 -2 0 -4 -18 -4 -40z"/>
<path d="M1364 640 c-1 -37 2 -40 26 -40 28 0 50 16 50 36 0 20 -29 44 -54 44
-19 0 -22 -6 -22 -40z m51 0 c0 -16 -6 -26 -17 -28 -12 -2 -18 3 -18 13 0 11
5 15 15 11 8 -3 15 -1 15 4 0 6 -7 10 -15 10 -8 0 -15 5 -15 11 0 6 8 9 18 7
11 -2 17 -12 17 -28z"/>
<path d="M1558 669 c-21 -12 -23 -40 -6 -57 13 -13 54 -16 62 -4 2 4 -7 8 -22
7 -18 0 -28 6 -30 19 -4 21 16 38 36 31 6 -2 12 0 12 5 0 13 -30 12 -52 -1z"/>
<path d="M1663 673 c15 -4 18 -12 15 -39 -2 -20 0 -34 7 -34 5 0 10 18 11 40
1 37 -1 40 -25 39 -19 -1 -21 -3 -8 -6z"/>
<path d="M1728 640 c-2 -26 1 -40 8 -40 7 0 11 8 10 18 -1 11 6 17 19 17 13 0
20 -6 19 -17 -1 -10 3 -18 10 -18 9 0 11 23 7 73 -1 5 -6 5 -11 2 -6 -4 -8
-11 -5 -16 4 -5 -6 -9 -20 -9 -20 0 -26 4 -21 15 3 8 1 15 -3 15 -5 0 -11 -18
-13 -40z"/>
<path d="M1920 640 c0 -22 4 -40 9 -40 4 0 6 11 3 25 -2 14 -1 25 3 25 4 0 16
-11 27 -25 27 -34 33 -32 33 15 1 22 -3 40 -7 40 -4 0 -8 -12 -8 -26 l0 -27
-25 27 c-13 14 -27 26 -30 26 -3 0 -5 -18 -5 -40z"/>
<path d="M2028 669 c-38 -22 -14 -69 34 -69 21 0 28 5 28 20 0 11 -4 20 -10
20 -5 0 -9 -6 -7 -12 1 -7 -7 -13 -18 -13 -15 0 -20 7 -20 25 0 19 5 25 23 24
12 0 22 3 22 8 0 11 -31 10 -52 -3z"/>
<path d="M954 570 c-29 -11 -35 -33 -18 -59 15 -21 48 -28 58 -12 4 5 -2 8
-11 6 -44 -7 -58 38 -16 52 15 5 23 12 18 15 -6 3 -19 2 -31 -2z"/>
<path d="M492 563 c13 -3 17 -13 15 -31 -1 -15 3 -27 8 -27 6 0 9 12 8 28 -1
18 3 27 14 27 9 0 13 -6 10 -15 -3 -7 2 -24 12 -36 14 -17 24 -20 44 -15 15 3
27 13 27 21 0 8 4 15 9 15 6 0 8 -9 6 -20 -2 -11 0 -18 6 -15 5 4 9 16 9 28 0
21 1 21 25 -6 14 -15 28 -27 30 -27 3 0 5 18 5 40 0 22 -4 40 -9 40 -4 0 -6
-12 -3 -27 l5 -28 -30 28 c-32 30 -45 35 -37 12 4 -8 2 -15 -4 -15 -5 0 -12 6
-15 14 -4 11 -24 14 -79 14 -40 0 -65 -3 -56 -5z m123 -24 c7 -20 -7 -38 -27
-39 -12 0 -30 39 -23 50 11 18 44 10 50 -11z"/>
<path d="M765 532 c0 -40 2 -41 57 -33 14 2 19 42 8 56 -7 8 -24 15 -39 15
-24 0 -26 -4 -26 -38z m53 0 c3 -17 -2 -22 -17 -22 -14 0 -21 6 -21 18 0 38
33 41 38 4z"/>
<path d="M852 533 c3 -35 6 -38 33 -38 27 0 29 3 30 38 1 20 -2 37 -7 37 -4 0
-8 -13 -8 -29 0 -16 -6 -31 -15 -34 -19 -8 -27 6 -21 38 3 14 0 25 -5 25 -6 0
-9 -17 -7 -37z"/>
<path d="M1020 560 c0 -5 7 -7 16 -3 13 5 15 0 11 -32 -3 -25 -2 -34 5 -27 6
6 11 22 11 36 0 15 5 26 13 26 14 0 16 -6 17 -47 0 -13 4 -23 8 -23 5 0 9 9 9
20 0 13 7 20 20 20 14 0 20 -7 20 -22 0 -12 3 -18 7 -15 10 11 11 77 2 77 -5
0 -9 -7 -9 -15 0 -8 -9 -15 -20 -15 -11 0 -20 7 -20 15 0 11 -12 15 -45 15
-25 0 -45 -4 -45 -10z"/>
<path d="M1193 531 c-14 -27 -16 -37 -6 -34 7 3 13 9 13 14 0 15 30 10 36 -6
4 -8 10 -15 14 -15 5 0 1 18 -7 40 -9 22 -19 40 -23 40 -5 0 -17 -18 -27 -39z"/>
<path d="M1270 530 c0 -22 4 -40 9 -40 4 0 6 12 3 28 l-5 27 31 -28 30 -29 4
41 c2 23 0 41 -4 41 -5 0 -8 -12 -8 -27 l-1 -28 -22 28 c-30 36 -37 34 -37
-13z"/>
<path d="M1362 558 c-29 -29 -2 -68 47 -68 16 0 21 6 20 28 0 26 -1 26 -9 5
-10 -25 -18 -27 -38 -14 -23 14 -9 45 23 52 l30 7 -30 1 c-17 0 -36 -4 -43
-11z"/>
<path d="M1470 535 c0 -19 3 -36 8 -36 4 -1 20 -2 35 -3 26 -2 27 0 25 36 -1
21 -6 38 -11 38 -5 0 -7 -11 -5 -25 3 -14 -1 -30 -9 -36 -17 -15 -22 -10 -25
29 -3 43 -18 41 -18 -3z"/>
<path d="M1553 550 c1 -11 6 -19 12 -17 5 2 18 -7 28 -20 26 -32 32 -29 33 17
1 22 -3 40 -7 40 -5 0 -9 -12 -9 -27 l-1 -28 -20 28 c-24 32 -38 35 -36 7z"/>
<path d="M1643 530 c0 -25 2 -35 4 -22 2 12 2 32 0 45 -2 12 -4 2 -4 -23z"/>
<path d="M1672 543 c23 -54 35 -59 49 -19 16 45 27 46 25 4 -1 -31 1 -33 37
-33 26 -1 37 3 37 14 0 11 4 10 20 -4 11 -10 20 -13 20 -7 0 6 -5 14 -10 17
-7 4 -7 12 0 24 11 22 4 31 -26 31 -20 0 -22 -4 -19 -29 4 -32 -12 -45 -36
-30 -12 8 -12 10 1 19 10 6 11 10 3 10 -7 0 -13 5 -13 11 0 6 7 9 15 5 8 -3
15 -1 15 4 0 6 -15 10 -33 10 -27 0 -35 -5 -44 -27 l-10 -28 -11 28 c-6 15
-16 27 -22 27 -6 0 -5 -10 2 -27z m168 8 c0 -6 -4 -13 -10 -16 -5 -3 -10 1
-10 9 0 9 5 16 10 16 6 0 10 -4 10 -9z"/>
<path d="M1876 555 c-3 -9 3 -19 14 -25 28 -15 25 -33 -2 -25 -19 6 -21 5 -10
-6 10 -11 16 -11 32 -1 12 7 20 8 20 2 0 -5 5 -10 10 -10 6 0 9 3 9 8 -1 4 -1
20 0 35 1 36 26 31 26 -6 0 -14 3 -29 8 -33 4 -4 7 9 7 29 0 19 6 38 13 40 6
3 -7 6 -31 6 -40 1 -42 0 -38 -24 5 -26 -1 -26 -32 -1 -11 8 -10 11 5 17 16 7
16 8 -3 8 -12 1 -24 -6 -28 -14z"/>
<path d="M2034 545 c9 -13 16 -31 16 -40 0 -9 5 -13 10 -10 6 4 8 10 5 15 -3
5 2 21 11 35 9 14 12 25 6 25 -5 0 -13 -8 -17 -17 -6 -17 -7 -17 -16 0 -6 9
-15 17 -21 17 -6 0 -3 -11 6 -25z"/>
<path d="M1557 513 c-4 -3 -7 -11 -7 -17 0 -6 5 -5 12 2 6 6 9 14 7 17 -3 3
-9 2 -12 -2z"/>
</g>
</svg>
